<svg width="20" height="20" viewBox="0 0 20 20" fill="none" xmlns="http://www.w3.org/2000/svg">
<path d="M6.45864 3.99833C6.39642 4.06055 6.3492 4.13555 6.30976 4.21777L6.30532 4.21332L0.0744036 18.2495L0.0805145 18.2557C-0.0350373 18.4795 0.15829 18.9351 0.554388 19.3317C0.950487 19.7278 1.40603 19.9212 1.62991 19.8056L1.63546 19.8112L15.6717 13.5797L15.6672 13.5747C15.7489 13.5358 15.8239 13.4886 15.8867 13.4253C16.7544 12.5575 15.3472 9.7437 12.7446 7.14045C10.1407 4.5372 7.32695 3.13058 6.45864 3.99833Z" fill="#DD2E44"/>
<path d="M7.22195 6.50493L0.231065 17.8968L0.0744036 18.2496L0.0805145 18.2557C-0.0350373 18.4795 0.15829 18.9351 0.554388 19.3317C0.683273 19.4606 0.817158 19.5584 0.948265 19.6412L9.4441 9.28262L7.22195 6.50493Z" fill="#EA596E"/>
<path d="M12.7839 7.09713C15.3783 9.6926 16.8188 12.4592 16 13.2769C15.1816 14.0958 12.4151 12.6558 9.81904 10.0615C7.22413 7.46601 5.78417 4.69832 6.60248 3.88001C7.42134 3.0617 10.1879 4.50166 12.7839 7.09713Z" fill="#A0041E"/>
<path d="M10.3273 7.39879C10.2167 7.48823 10.0723 7.53489 9.91953 7.51823C9.43733 7.46601 9.03178 7.29823 8.7479 7.03324C8.44736 6.75269 8.29903 6.37604 8.33958 5.99883C8.41069 5.33663 9.07512 4.72887 10.2079 4.85109C10.6484 4.89831 10.8451 4.75665 10.8517 4.68887C10.8595 4.62165 10.6978 4.4411 10.2573 4.39333C9.77509 4.3411 9.36955 4.17333 9.08512 3.90834C8.78457 3.62779 8.63569 3.25114 8.6768 2.87393C8.74902 2.21173 9.41288 1.60397 10.5445 1.72674C10.8656 1.76119 11.0351 1.69508 11.1067 1.6523C11.1639 1.6173 11.1867 1.58397 11.1889 1.56453C11.1956 1.49731 11.0362 1.31676 10.5945 1.26898C10.2895 1.23565 10.0684 0.962324 10.1023 0.656778C10.1351 0.351788 10.4079 0.131239 10.714 0.164571C11.8456 0.286234 12.3656 1.02121 12.2939 1.68397C12.2217 2.34728 11.5578 2.95393 10.4251 2.83226C10.104 2.79727 9.9362 2.86393 9.86398 2.90671C9.80676 2.94115 9.78343 2.97504 9.78121 2.99393C9.77398 3.0617 9.93453 3.2417 10.3762 3.28947C11.5078 3.41169 12.0278 4.14611 11.9561 4.80887C11.8845 5.47107 11.2206 6.07883 10.0884 5.95605C9.76732 5.92161 9.59843 5.98827 9.52621 6.0305C9.46844 6.06605 9.44622 6.09938 9.44399 6.11827C9.43677 6.18549 9.59732 6.36604 10.0384 6.41382C10.3429 6.44715 10.5645 6.72103 10.5306 7.02602C10.5151 7.17824 10.4379 7.3099 10.3273 7.39879Z" fill="#AA8DD8"/>
<path d="M17.0332 12.5364C18.1293 12.227 18.8854 12.7158 19.0654 13.3575C19.2454 13.9986 18.8554 14.8102 17.7599 15.1185C17.3321 15.2385 17.2038 15.443 17.221 15.508C17.2399 15.5735 17.4571 15.6813 17.8838 15.5608C18.9793 15.2524 19.7354 15.7413 19.9154 16.3824C20.0965 17.024 19.7054 17.8346 18.6093 18.1434C18.1821 18.2634 18.0532 18.4684 18.0721 18.5334C18.0904 18.5984 18.3071 18.7062 18.7343 18.5862C19.0287 18.5034 19.3365 18.6751 19.4193 18.9701C19.5015 19.2656 19.3298 19.5723 19.0343 19.6556C17.9393 19.9639 17.1827 19.4762 17.0016 18.834C16.8216 18.1929 17.2121 17.3824 18.3088 17.0735C18.7365 16.9529 18.8648 16.7491 18.846 16.6835C18.8282 16.6185 18.6115 16.5102 18.1849 16.6302C17.0882 16.939 16.3327 16.4513 16.1522 15.8085C15.9716 15.1674 16.3622 14.3569 17.4582 14.0475C17.8849 13.928 18.0132 13.7225 17.9954 13.658C17.9765 13.5925 17.7604 13.4847 17.3332 13.6047C17.0377 13.688 16.7316 13.5158 16.6483 13.2208C16.5655 12.9264 16.7377 12.6197 17.0332 12.5364Z" fill="#77B255"/>
<path d="M12.7777 11.0381C12.6144 11.0381 12.4532 10.9664 12.3433 10.8298C12.1516 10.5898 12.191 10.2403 12.4299 10.0487C12.551 9.95147 15.4398 7.68265 19.5225 8.26652C19.8263 8.30986 20.0374 8.59096 19.9941 8.89484C19.9508 9.19816 19.6719 9.41149 19.3652 9.36593C15.7581 8.85373 13.1504 10.8959 13.1249 10.9164C13.0216 10.9987 12.8993 11.0381 12.7777 11.0381Z" fill="#AA8DD8"/>
<path d="M3.19653 8.72707C3.14375 8.72707 3.08987 8.7193 3.03654 8.70374C2.74266 8.61541 2.57599 8.30598 2.66432 8.0121C3.29375 5.91605 3.86429 2.57116 3.1632 1.69897C3.08487 1.60008 2.96654 1.50286 2.69543 1.52342C2.17434 1.56342 2.22378 2.66282 2.22434 2.67393C2.24767 2.98004 2.01768 3.24669 1.71213 3.26947C1.40159 3.28836 1.13937 3.06281 1.1166 2.75671C1.05938 1.99062 1.2977 0.515115 2.6121 0.415674C3.19875 0.371231 3.68596 0.575113 4.02984 1.00288C5.34702 2.64227 4.00984 7.3949 3.72873 8.33153C3.65652 8.57208 3.43541 8.72707 3.19653 8.72707Z" fill="#77B255"/>
<path d="M14.1663 5.9494C14.6265 5.9494 14.9996 5.57632 14.9996 5.1161C14.9996 4.65588 14.6265 4.28279 14.1663 4.28279C13.7061 4.28279 13.333 4.65588 13.333 5.1161C13.333 5.57632 13.7061 5.9494 14.1663 5.9494Z" fill="#5C913B"/>
<path d="M1.11108 10.9492C1.72471 10.9492 2.22215 10.4518 2.22215 9.83814C2.22215 9.22451 1.72471 8.72707 1.11108 8.72707C0.497445 8.72707 0 9.22451 0 9.83814C0 10.4518 0.497445 10.9492 1.11108 10.9492Z" fill="#9266CC"/>
<path d="M18.055 11.5048C18.5152 11.5048 18.8883 11.1317 18.8883 10.6715C18.8883 10.2113 18.5152 9.83817 18.055 9.83817C17.5948 9.83817 17.2217 10.2113 17.2217 10.6715C17.2217 11.1317 17.5948 11.5048 18.055 11.5048Z" fill="#5C913B"/>
<path d="M13.055 18.1712C13.5152 18.1712 13.8883 17.7982 13.8883 17.3379C13.8883 16.8777 13.5152 16.5046 13.055 16.5046C12.5948 16.5046 12.2217 16.8777 12.2217 17.3379C12.2217 17.7982 12.5948 18.1712 13.055 18.1712Z" fill="#5C913B"/>
<path d="M15.5549 3.1717C16.1686 3.1717 16.666 2.67425 16.666 2.06062C16.666 1.44699 16.1686 0.949547 15.5549 0.949547C14.9413 0.949547 14.4438 1.44699 14.4438 2.06062C14.4438 2.67425 14.9413 3.1717 15.5549 3.1717Z" fill="#FFCC4D"/>
<path d="M18.055 5.39387C18.5152 5.39387 18.8883 5.02079 18.8883 4.56056C18.8883 4.10034 18.5152 3.72726 18.055 3.72726C17.5948 3.72726 17.2217 4.10034 17.2217 4.56056C17.2217 5.02079 17.5948 5.39387 18.055 5.39387Z" fill="#FFCC4D"/>
<path d="M16.3885 7.61601C16.8487 7.61601 17.2218 7.24292 17.2218 6.7827C17.2218 6.32248 16.8487 5.94939 16.3885 5.94939C15.9283 5.94939 15.5552 6.32248 15.5552 6.7827C15.5552 7.24292 15.9283 7.61601 16.3885 7.61601Z" fill="#FFCC4D"/>
<path d="M4.16631 13.7269C4.62654 13.7269 4.99962 13.3538 4.99962 12.8936C4.99962 12.4334 4.62654 12.0603 4.16631 12.0603C3.70609 12.0603 3.33301 12.4334 3.33301 12.8936C3.33301 13.3538 3.70609 13.7269 4.16631 13.7269Z" fill="#FFCC4D"/>
</svg>
