<svg width="20" height="22" viewBox="0 0 20 22" fill="none" xmlns="http://www.w3.org/2000/svg">
<path d="M19.09 5.98002C18.24 5.04002 16.82 4.57002 14.76 4.57002H14.52V4.53002C14.52 2.85002 14.52 0.77002 10.76 0.77002H9.24004C5.48004 0.77002 5.48004 2.86002 5.48004 4.53002V4.58002H5.24004C3.17004 4.58002 1.76004 5.05002 0.910038 5.99002C-0.0799625 7.09002 -0.0499626 8.57002 0.0500374 9.58002L0.0600374 9.65002L0.137493 10.4633C0.151757 10.6131 0.232421 10.7484 0.358313 10.8307C0.598117 10.9877 0.999462 11.2464 1.24004 11.38C1.38004 11.47 1.53004 11.55 1.68004 11.63C3.39004 12.57 5.27004 13.2 7.18004 13.51C7.27004 14.45 7.68004 15.55 9.87004 15.55C12.06 15.55 12.49 14.46 12.56 13.49C14.6 13.16 16.57 12.45 18.35 11.41C18.41 11.38 18.45 11.35 18.5 11.32C18.8968 11.0958 19.3083 10.8195 19.6835 10.5489C19.7965 10.4673 19.8688 10.3413 19.8842 10.2028L19.9 10.06L19.95 9.59002C19.96 9.53002 19.96 9.48002 19.97 9.41002C20.05 8.40002 20.03 7.02002 19.09 5.98002ZM11.09 12.83C11.09 13.89 11.09 14.05 9.86004 14.05C8.63004 14.05 8.63004 13.86 8.63004 12.84V11.58H11.09V12.83ZM6.91004 4.53002C6.91004 2.83002 6.91004 2.20002 9.24004 2.20002H10.76C13.09 2.20002 13.09 2.84002 13.09 4.53002V4.58002H6.91004V4.53002Z" fill="currentColor"/>
<path d="M18.8735 12.7342C19.2271 12.5659 19.6344 12.8462 19.599 13.2362L19.24 17.19C19.03 19.19 18.21 21.23 13.81 21.23H6.19004C1.79004 21.23 0.970037 19.19 0.760037 17.2L0.419326 13.4522C0.384284 13.0667 0.782239 12.7868 1.13488 12.9463C2.27429 13.4618 4.37743 14.3764 5.67661 14.7167C5.84092 14.7597 5.97381 14.8773 6.04575 15.0312C6.65272 16.3293 7.96915 17.02 9.87004 17.02C11.7521 17.02 13.0852 16.3027 13.6942 15.0014C13.7662 14.8474 13.8993 14.7299 14.0637 14.6866C15.4432 14.3236 17.6818 13.3013 18.8735 12.7342Z" fill="currentColor"/>
</svg>
