<svg width="18" height="20" viewBox="0 0 18 20" fill="none" xmlns="http://www.w3.org/2000/svg">
<path d="M10.47 5.40988L12.93 4.19988C13.23 4.04988 13.31 3.65988 13.08 3.41988C12.19 2.43988 11.29 1.61988 10.57 0.99988C10.24 0.71988 9.75003 0.94988 9.75003 1.37988V4.95988C9.75003 5.32988 10.14 5.56988 10.47 5.40988Z" fill="white"/>
<path d="M9.75003 17.7399V19.3899C9.75003 19.6899 10.02 19.9399 10.32 19.8899C13.05 19.4399 15.33 17.6099 16.41 15.1499C16.6 14.7299 16.14 14.3099 15.72 14.5099L10.03 17.2999C9.86003 17.3799 9.75003 17.5499 9.75003 17.7399Z" fill="white"/>
<path d="M8.25003 1.35988C8.25003 0.92988 7.76003 0.69988 7.43003 0.96988C5.07003 2.94988 0.880027 7.11988 0.900027 11.8999C0.900027 15.9199 3.84003 19.2499 7.68003 19.8899C7.98003 19.9399 8.25003 19.6899 8.25003 19.3899V1.35988Z" fill="white"/>
<path d="M10.44 10.4699L15.73 8.24988C16 8.12988 16.13 7.81988 16 7.55988C15.63 6.82988 15.2 6.11988 14.73 5.45988C14.59 5.25988 14.33 5.19988 14.11 5.29988L10.02 7.28988C9.85003 7.36988 9.74003 7.54988 9.74003 7.73988V10.0099C9.75003 10.3599 10.11 10.6099 10.44 10.4699Z" fill="white"/>
<path d="M16.83 12.3099C16.99 12.2299 17.09 12.0799 17.09 11.9099C17.09 11.2699 17.01 10.6399 16.87 10.0199C16.8 9.71988 16.47 9.55988 16.19 9.67988L10.05 12.2999C9.87003 12.3799 9.75003 12.5599 9.75003 12.7599V14.9599C9.75003 15.3299 10.14 15.5699 10.47 15.4099L16.37 12.5399L16.83 12.3099Z" fill="white"/>
</svg>
