<svg width="18" height="18" viewBox="0 0 18 18" fill="none" xmlns="http://www.w3.org/2000/svg">
<path d="M16.9997 9.97017H7.92969C7.47969 9.97017 7.10969 9.60017 7.10969 9.15017C7.10969 8.70017 7.47969 8.33017 7.92969 8.33017H16.9997C17.4497 8.33017 17.8197 8.70017 17.8197 9.15017C17.8197 9.60017 17.4497 9.97017 16.9997 9.97017Z" fill="currentColor"/>
<path d="M16.9997 3.67017H7.92969C7.47969 3.67017 7.10969 3.30017 7.10969 2.85017C7.10969 2.40017 7.47969 2.03017 7.92969 2.03017H16.9997C17.4497 2.03017 17.8197 2.40017 17.8197 2.85017C17.8197 3.30017 17.4497 3.67017 16.9997 3.67017Z" fill="currentColor"/>
<path d="M16.9997 16.2602H7.92969C7.47969 16.2602 7.10969 15.8902 7.10969 15.4402C7.10969 14.9902 7.47969 14.6202 7.92969 14.6202H16.9997C17.4497 14.6202 17.8197 14.9902 17.8197 15.4402C17.8197 15.9002 17.4497 16.2602 16.9997 16.2602Z" fill="currentColor"/>
<path d="M1.90969 5.03017C1.68969 5.03017 1.47969 4.94017 1.32969 4.79017L0.419687 3.88017C0.0996875 3.56017 0.0996875 3.04017 0.419687 2.72017C0.739688 2.40017 1.25969 2.40017 1.57969 2.72017L1.90969 3.05017L4.04969 0.910166C4.36969 0.590166 4.88969 0.590166 5.20969 0.910166C5.52969 1.23017 5.52969 1.75017 5.20969 2.07017L2.48969 4.79017C2.32969 4.94017 2.12969 5.03017 1.90969 5.03017Z" fill="currentColor"/>
<path d="M1.90969 11.3302C1.69969 11.3302 1.48969 11.2502 1.32969 11.0902L0.419687 10.1802C0.0996875 9.86017 0.0996875 9.34017 0.419687 9.02017C0.739688 8.70017 1.25969 8.70017 1.57969 9.02017L1.90969 9.35017L4.04969 7.21017C4.36969 6.89017 4.88969 6.89017 5.20969 7.21017C5.52969 7.53017 5.52969 8.05017 5.20969 8.37017L2.48969 11.0902C2.32969 11.2502 2.11969 11.3302 1.90969 11.3302Z" fill="currentColor"/>
<path d="M1.90969 17.3302C1.69969 17.3302 1.48969 17.2502 1.32969 17.0902L0.419687 16.1802C0.0996875 15.8602 0.0996875 15.3402 0.419687 15.0202C0.739688 14.7002 1.25969 14.7002 1.57969 15.0202L1.90969 15.3502L4.04969 13.2102C4.36969 12.8902 4.88969 12.8902 5.20969 13.2102C5.52969 13.5302 5.52969 14.0502 5.20969 14.3702L2.48969 17.0902C2.32969 17.2502 2.11969 17.3302 1.90969 17.3302Z" fill="currentColor"/>
</svg>
