<svg width="14" height="14" viewBox="0 0 14 14" fill="none" xmlns="http://www.w3.org/2000/svg">
<path d="M12.0067 2.90004L8.04667 0.613374C7.4 0.240041 6.6 0.240041 5.94667 0.613374L1.99334 2.90004C1.34667 3.27337 0.946671 3.96671 0.946671 4.72004V9.28004C0.946671 10.0267 1.34667 10.72 1.99334 11.1L5.95334 13.3867C6.6 13.76 7.4 13.76 8.05334 13.3867L12.0133 11.1C12.66 10.7267 13.06 10.0334 13.06 9.28004V4.72004C13.0533 3.96671 12.6533 3.28004 12.0067 2.90004ZM6.5 4.16671C6.5 3.89337 6.72667 3.66671 7 3.66671C7.27334 3.66671 7.5 3.89337 7.5 4.16671V7.66671C7.5 7.94004 7.27334 8.16671 7 8.16671C6.72667 8.16671 6.5 7.94004 6.5 7.66671V4.16671ZM7.61334 10.0867C7.58 10.1667 7.53334 10.24 7.47334 10.3067C7.34667 10.4334 7.18 10.5 7 10.5C6.91334 10.5 6.82667 10.48 6.74667 10.4467C6.66 10.4134 6.59334 10.3667 6.52667 10.3067C6.46667 10.24 6.42 10.1667 6.38 10.0867C6.34667 10.0067 6.33334 9.92004 6.33334 9.83337C6.33334 9.66004 6.4 9.48671 6.52667 9.36004C6.59334 9.30004 6.66 9.25337 6.74667 9.22004C6.99334 9.11337 7.28667 9.17337 7.47334 9.36004C7.53334 9.42671 7.58 9.49337 7.61334 9.58004C7.64667 9.66004 7.66667 9.74671 7.66667 9.83337C7.66667 9.92004 7.64667 10.0067 7.61334 10.0867Z" fill="#FE8084"/>
</svg>
